# xmcd CD database file
# Copyright (C) 1993-1998 Ti Kan
# 
# Track frame offsets:
#     225
#     14810
#     30825
#     42457
#     61782
#     71817
#     86625
#     96905
#     108357
#     119817
#     130562
#     141352
#     151612
#     161792
#     174385
#     186175
#     197807
#     208825
# 
# Disc length: 3017 seconds
# 
# Revision: 1
# Processed by: cddbd v1.4b41PL1 Copyright (c) Steve Scherf et al.
# Submitted via: DiscPlay 4.0.4
# 
DISCID=030bc612
DTITLE=Various Country - Country Memories [CD2]
DYEAR=1900
DGENRE=
TTITLE0=Lovesick Blues
TTITLE1=San Antonio Rose
TTITLE2=It Wasn't God Who Made Honky Tonk Angels
TTITLE3=Sixteen Tons
TTITLE4=Bimbo
TTITLE5=All I Have to Do is Dream
TTITLE6=It's Only Make Believe
TTITLE7=A Fool Such as I
TTITLE8=Young Love
TTITLE9=Kisses Sweeter Than Wine
TTITLE10=Raunchy
TTITLE11=Claudette
TTITLE12=Oh, Oh, I'm Falling in Love Again
TTITLE13=Love Me Tender
TTITLE14=Gotta Travel On
TTITLE15=Gonna Find Me a Bluebird
TTITLE16='Til I Kissed You
TTITLE17=Deck of Cards
EXTD=
EXTT0=
EXTT1=
EXTT2=
EXTT3=
EXTT4=
EXTT5=
EXTT6=
EXTT7=
EXTT8=
EXTT9=
EXTT10=
EXTT11=
EXTT12=
EXTT13=
EXTT14=
EXTT15=
EXTT16=
EXTT17=
PLAYORDER=
